<?xml version="1.0"?>
<svg width="266" height="267" xmlns="http://www.w3.org/2000/svg" xmlns:svg="http://www.w3.org/2000/svg" preserveAspectRatio="xMidYMid" version="1.1">
 <g class="layer">
  <title>Layer 1</title>
  <g id="svg_1">
   <circle cx="133" cy="133.83" fill="#000000" id="svg_2" r="119"/>
   <path d="m184.79,58.79c-12.08,0.43 -22.61,7.07 -30.46,16.28c-8.68,10.1 -14.47,22.06 -18.63,34.29c-7.45,-6.11 -13.19,-14.01 -25.14,-17.45c-9.23,-2.66 -18.93,-1.56 -27.85,5.09c-4.22,3.16 -7.13,7.93 -8.52,12.41c-3.59,11.66 3.77,22.03 7.1,25.75l7.31,7.83c1.5,1.53 5.12,5.53 3.36,11.27c-1.92,6.24 -9.44,10.28 -17.15,7.9c-3.45,-1.05 -8.4,-3.62 -7.29,-7.23c0.46,-1.48 1.52,-2.58 2.08,-3.86c0.52,-1.11 0.77,-1.92 0.93,-2.41c1.41,-4.6 -0.52,-10.59 -5.45,-12.11c-4.59,-1.4 -9.3,-0.29 -11.13,5.63c-2.06,6.72 1.15,18.93 18.4,24.25c20.2,6.21 37.29,-4.79 39.71,-19.14c1.53,-8.98 -2.53,-15.66 -9.96,-24.25l-6.06,-6.69c-3.66,-3.66 -4.93,-9.91 -1.12,-14.71c3.2,-4.05 7.76,-5.78 15.24,-3.75c10.91,2.96 15.77,10.52 23.88,16.63c-3.36,10.99 -5.54,22.02 -7.52,31.91l-1.21,7.37c-5.8,30.42 -10.23,47.13 -21.74,56.71c-2.31,1.65 -5.62,4.12 -10.62,4.3c-2.62,0.07 -3.47,-1.72 -3.5,-2.51c-0.07,-1.83 1.49,-2.68 2.52,-3.5c1.53,-0.84 3.86,-2.23 3.7,-6.68c-0.17,-5.27 -4.53,-9.84 -10.83,-9.62c-4.72,0.16 -11.93,4.6 -11.65,12.74c0.28,8.4 8.11,14.71 19.91,14.31c6.31,-0.22 20.42,-2.79 34.31,-19.3c16.17,-18.93 20.69,-40.64 24.09,-56.52l3.8,-20.97c2.11,0.25 4.36,0.42 6.81,0.48c20.14,0.42 30.21,-10.01 30.36,-17.6c0.1,-4.59 -3.01,-9.11 -7.37,-9.01c-3.11,0.09 -7.04,2.17 -7.98,6.48c-0.92,4.23 6.41,8.05 0.68,11.76c-4.06,2.63 -11.36,4.49 -21.63,2.98l1.87,-10.32c3.81,-19.58 8.52,-43.66 26.35,-44.24c1.3,-0.07 6.06,0.06 6.17,3.21c0.03,1.05 -0.23,1.31 -1.46,3.72c-1.26,1.88 -1.73,3.48 -1.66,5.31c0.17,5 3.97,8.28 9.46,8.09c7.36,-0.24 9.47,-7.41 9.35,-11.09c-0.29,-8.65 -9.41,-14.1 -21.47,-13.71l0,0z" fill="#FFFFFF" id="svg_3"/>
  </g>
 </g>
</svg>